<?xml version="1.0" encoding="UTF-8" standalone="no"?>
<!DOCTYPE svg PUBLIC "-//W3C//DTD SVG 1.1//EN" "http://www.w3.org/Graphics/SVG/1.1/DTD/svg11.dtd">
<svg width="100%" height="100%" viewBox="0 0 3507 1395" version="1.1" xmlns="http://www.w3.org/2000/svg" xmlns:xlink="http://www.w3.org/1999/xlink" xml:space="preserve" xmlns:serif="http://www.serif.com/" style="fill-rule:evenodd;clip-rule:evenodd;stroke-linejoin:round;stroke-miterlimit:2;">
    <g id="Layer-1" serif:id="Layer 1" transform="matrix(5.15779,0,0,5.15779,-469.986,-810.717)">
        <g transform="matrix(1,0,0,1,300.625,236.327)">
            <path d="M0,-76.701L10.321,-76.701C11.081,-76.701 11.842,-75.94 11.842,-75.18L11.842,-13.037C11.842,-12.385 12.276,-11.95 13.037,-11.95L36.178,-11.95C37.047,-11.95 37.699,-11.19 37.699,-10.429L37.699,-1.521C37.699,-0.652 37.047,0 36.178,0L0.109,0C-0.869,0 -1.521,-0.652 -1.521,-1.521L-1.521,-75.18C-1.521,-75.94 -0.869,-76.701 0,-76.701" style="fill:rgb(29,29,27);fill-rule:nonzero;"/>
        </g>
        <g transform="matrix(1,0,0,1,361.137,224.376)">
            <path d="M0,-52.799C-0.652,-52.799 -1.087,-52.256 -1.087,-51.713L-1.087,-1.086C-1.087,-0.434 -0.652,0.001 0,0.001L7.931,0.001C16.513,0.001 22.054,-5.431 22.054,-14.774L22.054,-37.915C22.054,-47.15 16.622,-52.799 7.714,-52.799L0,-52.799ZM35.634,-37.915L35.634,-14.774C35.634,2.174 23.792,11.951 8.148,11.951L-12.928,11.951C-13.798,11.951 -14.449,11.3 -14.449,10.431L-14.449,-63.229C-14.449,-63.989 -13.798,-64.75 -12.928,-64.75L7.931,-64.75C24.662,-64.75 35.634,-54.863 35.634,-37.915" style="fill:rgb(29,29,27);fill-rule:nonzero;"/>
        </g>
        <g transform="matrix(1,0,0,1,186.528,330.169)">
            <path d="M0,-76.701L10.212,-76.701C10.973,-76.701 11.733,-75.94 11.733,-75.18L11.733,-44.76C11.733,-44.108 12.168,-43.674 12.928,-43.674L34.331,-43.674C34.983,-43.674 35.417,-44.108 35.417,-44.76L35.417,-75.18C35.417,-75.94 36.178,-76.701 37.047,-76.701L47.259,-76.701C48.128,-76.701 48.78,-75.94 48.78,-75.18L48.78,-1.521C48.78,-0.652 48.128,0 47.259,0L37.047,0C36.178,0 35.417,-0.652 35.417,-1.521L35.417,-31.506C35.417,-32.158 34.983,-32.701 34.331,-32.701L12.928,-32.701C12.168,-32.701 11.733,-32.158 11.733,-31.506L11.733,-1.521C11.733,-0.652 10.973,0 10.212,0L-0.109,0C-0.978,0 -1.63,-0.652 -1.63,-1.521L-1.63,-75.18C-1.63,-75.94 -0.978,-76.701 0,-76.701" style="fill:rgb(29,29,27);fill-rule:nonzero;"/>
        </g>
        <g transform="matrix(1,0,0,1,305.923,330.169)">
            <path d="M0,-76.701L43.457,-76.701C44.217,-76.701 44.978,-75.94 44.978,-75.18L44.978,-66.271C44.978,-65.402 44.217,-64.75 43.457,-64.75L29.442,-64.75C28.899,-64.75 28.355,-64.207 28.355,-63.555L28.355,-1.521C28.355,-0.652 27.704,0 26.726,0L16.513,0C15.644,0 14.993,-0.652 14.993,-1.521L14.993,-63.555C14.993,-64.207 14.449,-64.75 13.797,-64.75L0,-64.75C-0.978,-64.75 -1.63,-65.402 -1.63,-66.271L-1.63,-75.18C-1.63,-75.94 -0.978,-76.701 0,-76.701" style="fill:rgb(29,29,27);fill-rule:nonzero;"/>
        </g>
        <g transform="matrix(1,0,0,1,418.147,303.335)">
            <path d="M0,-23.032C0,-39.872 11.842,-50.736 28.247,-50.736C34.548,-50.736 40.306,-48.78 44.869,-45.738C45.738,-45.304 45.956,-44.326 45.521,-43.565L40.523,-35.96C40.089,-35.309 39.22,-34.874 38.351,-35.417C35.743,-37.155 32.267,-38.35 28.356,-38.35C19.556,-38.35 13.58,-32.593 13.58,-23.032L13.58,-0C13.58,9.56 19.23,15.427 27.812,15.427C31.615,15.427 34.44,14.341 36.83,12.928C37.807,12.385 37.916,11.625 37.916,10.756L37.916,-1.195C37.916,-1.738 37.481,-2.282 36.83,-2.282L28.899,-2.282C28.03,-2.282 27.269,-3.042 27.269,-3.802L27.269,-10.756C27.269,-11.625 28.03,-12.277 28.899,-12.277L49.758,-12.277C50.627,-12.277 51.279,-11.625 51.279,-10.756L51.279,25.314C51.279,26.074 50.627,26.835 49.758,26.835L48.346,26.835C47.694,26.835 47.042,26.509 46.39,25.965L42.805,22.489C42.37,22.054 41.827,21.946 41.175,22.489C37.047,25.857 32.267,27.704 25.531,27.704C11.842,27.704 0,17.817 0,0.109L0,-23.032Z" style="fill:rgb(29,29,27);fill-rule:nonzero;"/>
        </g>
        <g transform="matrix(1,0,0,1,554.491,277.152)">
            <path d="M0,29.333C-0.109,29.876 0.217,30.419 0.76,30.419L14.992,30.419C15.644,30.419 15.97,29.876 15.753,29.333L8.583,6.844C8.474,6.41 8.256,6.301 7.931,6.301C7.496,6.301 7.279,6.41 7.17,6.844L0,29.333ZM4.128,-22.489C4.346,-23.25 5.106,-23.684 5.867,-23.684L9.995,-23.684C10.755,-23.684 11.516,-23.25 11.733,-22.489L36.178,51.061C36.503,52.039 35.634,53.017 34.656,53.017L24.77,53.017C23.792,53.017 23.032,52.582 22.815,51.713L19.664,41.935C19.338,41.066 18.469,40.414 17.6,40.414L-1.847,40.414C-2.716,40.414 -3.585,40.958 -3.911,41.935L-6.953,51.713C-7.279,52.582 -8.04,53.017 -8.909,53.017L-19.23,53.017C-20.207,53.017 -21.077,52.148 -20.751,51.061L4.128,-22.489Z" style="fill:rgb(29,29,27);fill-rule:nonzero;"/>
        </g>
        <g transform="matrix(1,0,0,1,656.068,330.169)">
            <path d="M0,-76.701L10.212,-76.701C10.973,-76.701 11.733,-75.94 11.733,-75.18L11.733,-44.76C11.733,-44.108 12.168,-43.674 12.929,-43.674L34.331,-43.674C34.983,-43.674 35.417,-44.108 35.417,-44.76L35.417,-75.18C35.417,-75.94 36.178,-76.701 37.047,-76.701L47.259,-76.701C48.128,-76.701 48.78,-75.94 48.78,-75.18L48.78,-1.521C48.78,-0.652 48.128,0 47.259,0L37.047,0C36.178,0 35.417,-0.652 35.417,-1.521L35.417,-31.506C35.417,-32.158 34.983,-32.701 34.331,-32.701L12.929,-32.701C12.168,-32.701 11.733,-32.158 11.733,-31.506L11.733,-1.521C11.733,-0.652 10.973,0 10.212,0L-0.109,0C-0.978,0 -1.63,-0.652 -1.63,-1.521L-1.63,-75.18C-1.63,-75.94 -0.978,-76.701 0,-76.701" style="fill:rgb(29,29,27);fill-rule:nonzero;"/>
        </g>
        <g transform="matrix(1,0,0,1,733.31,276.392)">
            <path d="M0,30.854C0,29.768 -0.109,28.898 -0.543,27.921L-21.511,-20.86C-21.945,-21.837 -21.294,-22.924 -20.207,-22.924L-9.778,-22.924C-8.909,-22.924 -8.148,-22.38 -7.822,-21.62L5.975,11.624C6.084,11.95 6.41,12.059 6.627,12.059L6.736,12.059C6.953,12.059 7.279,11.95 7.388,11.624L21.294,-21.62C21.62,-22.38 22.38,-22.924 23.25,-22.924L34.005,-22.924C35.091,-22.924 35.743,-21.837 35.309,-20.86L14.015,27.921C13.58,28.898 13.363,29.768 13.363,30.854L13.363,51.822C13.363,52.908 12.494,53.778 11.408,53.778L1.956,53.778C0.869,53.778 0,52.908 0,51.822L0,30.854Z" style="fill:rgb(29,29,27);fill-rule:nonzero;"/>
        </g>
        <g transform="matrix(1,0,0,1,212.766,397.172)">
            <path d="M0,-23.032C0,-39.871 11.842,-50.736 28.247,-50.736C34.548,-50.736 40.306,-48.78 44.869,-45.738C45.738,-45.304 45.955,-44.326 45.521,-43.565L40.523,-35.96C40.089,-35.308 39.22,-34.874 38.35,-35.417C35.743,-37.155 32.266,-38.35 28.355,-38.35C19.555,-38.35 13.58,-32.592 13.58,-23.032L13.58,-0C13.58,9.561 19.23,15.427 27.812,15.427C31.615,15.427 34.439,14.341 36.829,12.929C37.807,12.385 37.916,11.625 37.916,10.756L37.916,-1.195C37.916,-1.738 37.481,-2.281 36.829,-2.281L28.899,-2.281C28.029,-2.281 27.269,-3.042 27.269,-3.802L27.269,-10.755C27.269,-11.624 28.029,-12.276 28.899,-12.276L49.758,-12.276C50.627,-12.276 51.279,-11.624 51.279,-10.755L51.279,25.314C51.279,26.074 50.627,26.835 49.758,26.835L48.346,26.835C47.694,26.835 47.042,26.509 46.39,25.966L42.805,22.489C42.37,22.054 41.827,21.946 41.175,22.489C37.047,25.857 32.266,27.704 25.531,27.704C11.842,27.704 0,17.817 0,0.109L0,-23.032Z" style="fill:rgb(29,29,27);fill-rule:nonzero;"/>
        </g>
        <g transform="matrix(1,0,0,1,291.095,370.99)">
            <path d="M0,29.333C-0.109,29.876 0.217,30.42 0.76,30.42L14.993,30.42C15.644,30.42 15.97,29.876 15.753,29.333L8.583,6.844C8.474,6.41 8.257,6.301 7.931,6.301C7.496,6.301 7.279,6.41 7.17,6.844L0,29.333ZM4.128,-22.489C4.346,-23.25 5.106,-23.684 5.867,-23.684L9.995,-23.684C10.756,-23.684 11.516,-23.25 11.733,-22.489L36.178,51.061C36.504,52.039 35.635,53.017 34.657,53.017L24.77,53.017C23.793,53.017 23.032,52.582 22.815,51.713L19.664,41.935C19.338,41.066 18.469,40.414 17.6,40.414L-1.847,40.414C-2.716,40.414 -3.585,40.958 -3.911,41.935L-6.953,51.713C-7.279,52.582 -8.039,53.017 -8.909,53.017L-19.23,53.017C-20.207,53.017 -21.077,52.148 -20.751,51.061L4.128,-22.489Z" style="fill:rgb(29,29,27);fill-rule:nonzero;"/>
        </g>
        <g transform="matrix(1,0,0,1,336.071,424.007)">
            <path d="M0,-76.701L1.412,-76.701C1.956,-76.701 2.499,-76.484 2.825,-76.049L36.069,-34.114C36.503,-33.57 37.373,-33.788 37.373,-34.548L37.373,-75.18C37.373,-75.941 38.025,-76.701 38.894,-76.701L49.106,-76.701C50.084,-76.701 50.736,-75.941 50.736,-75.18L50.736,-1.521C50.736,-0.652 49.975,0 49.106,0L47.585,0C47.042,0 46.281,-0.326 45.955,-0.76L13.254,-42.696C12.82,-43.348 11.842,-43.022 11.842,-42.262L11.842,-1.521C11.842,-0.652 11.19,0 10.321,0L0,0C-0.869,0 -1.521,-0.652 -1.521,-1.521L-1.521,-75.18C-1.521,-75.941 -0.869,-76.701 0,-76.701" style="fill:rgb(29,29,27);fill-rule:nonzero;"/>
        </g>
        <g transform="matrix(1,0,0,1,400.494,424.007)">
            <path d="M0,-76.701L10.321,-76.701C11.081,-76.701 11.842,-75.941 11.842,-75.18L11.842,-1.521C11.842,-0.652 11.081,0 10.321,0L0,0C-0.869,0 -1.521,-0.652 -1.521,-1.521L-1.521,-75.18C-1.521,-75.941 -0.869,-76.701 0,-76.701" style="fill:rgb(29,29,27);fill-rule:nonzero;"/>
        </g>
        <g transform="matrix(1,0,0,1,460.246,419.77)">
            <path d="M0,-68.227C0.869,-67.684 0.978,-66.706 0.543,-65.946L-4.454,-58.232C-4.889,-57.472 -5.975,-57.254 -6.844,-57.797C-9.017,-59.318 -11.624,-60.513 -15.101,-60.513C-20.533,-60.513 -23.575,-57.472 -23.575,-53.56L-23.575,-53.126C-23.575,-47.585 -21.185,-45.738 -11.19,-39.328C0.435,-32.266 4.998,-27.052 4.998,-16.622L4.998,-15.97C4.998,-3.151 -3.802,5.106 -18.143,5.106C-26.182,5.106 -33.027,2.173 -37.699,-1.087C-38.459,-1.63 -38.676,-2.608 -38.242,-3.259L-33.135,-11.082C-32.701,-11.733 -31.615,-12.059 -30.854,-11.516C-28.355,-9.669 -24.01,-7.605 -19.012,-7.605C-12.168,-7.605 -8.8,-10.973 -8.8,-15.753L-8.8,-16.514C-8.8,-23.25 -12.276,-24.77 -22.38,-31.832C-30.963,-37.916 -37.155,-41.175 -37.155,-52.909L-37.155,-53.669C-37.155,-65.294 -29.007,-73.333 -15.97,-73.333C-9.778,-73.333 -4.454,-71.269 0,-68.227" style="fill:rgb(29,29,27);fill-rule:nonzero;"/>
        </g>
        <g transform="matrix(1,0,0,1,489.579,370.99)">
            <path d="M0,29.333C-0.109,29.876 0.217,30.42 0.76,30.42L14.992,30.42C15.644,30.42 15.97,29.876 15.753,29.333L8.583,6.844C8.474,6.41 8.256,6.301 7.931,6.301C7.496,6.301 7.279,6.41 7.17,6.844L0,29.333ZM4.128,-22.489C4.346,-23.25 5.106,-23.684 5.867,-23.684L9.995,-23.684C10.755,-23.684 11.516,-23.25 11.733,-22.489L36.178,51.061C36.503,52.039 35.634,53.017 34.656,53.017L24.77,53.017C23.792,53.017 23.032,52.582 22.815,51.713L19.664,41.935C19.338,41.066 18.469,40.414 17.6,40.414L-1.847,40.414C-2.716,40.414 -3.585,40.958 -3.911,41.935L-6.953,51.713C-7.279,52.582 -8.04,53.017 -8.909,53.017L-19.23,53.017C-20.208,53.017 -21.077,52.148 -20.751,51.061L4.128,-22.489Z" style="fill:rgb(29,29,27);fill-rule:nonzero;"/>
        </g>
        <g transform="matrix(1,0,0,1,522.497,424.007)">
            <path d="M0,-76.701L43.457,-76.701C44.217,-76.701 44.978,-75.941 44.978,-75.18L44.978,-66.271C44.978,-65.402 44.217,-64.75 43.457,-64.75L29.442,-64.75C28.899,-64.75 28.356,-64.207 28.356,-63.555L28.356,-1.521C28.356,-0.652 27.704,0 26.726,0L16.514,0C15.645,0 14.993,-0.652 14.993,-1.521L14.993,-63.555C14.993,-64.207 14.449,-64.75 13.798,-64.75L0,-64.75C-0.978,-64.75 -1.63,-65.402 -1.63,-66.271L-1.63,-75.18C-1.63,-75.941 -0.978,-76.701 0,-76.701" style="fill:rgb(29,29,27);fill-rule:nonzero;"/>
        </g>
        <g transform="matrix(1,0,0,1,576.491,424.007)">
            <path d="M0,-76.701L10.321,-76.701C11.081,-76.701 11.842,-75.941 11.842,-75.18L11.842,-1.521C11.842,-0.652 11.081,0 10.321,0L0,0C-0.869,0 -1.521,-0.652 -1.521,-1.521L-1.521,-75.18C-1.521,-75.941 -0.869,-76.701 0,-76.701" style="fill:rgb(29,29,27);fill-rule:nonzero;"/>
        </g>
        <g transform="matrix(1,0,0,1,666.118,424.007)">
            <path d="M0,-76.701L1.412,-76.701C1.956,-76.701 2.499,-76.484 2.825,-76.049L36.069,-34.114C36.503,-33.57 37.373,-33.788 37.373,-34.548L37.373,-75.18C37.373,-75.941 38.025,-76.701 38.894,-76.701L49.106,-76.701C50.084,-76.701 50.736,-75.941 50.736,-75.18L50.736,-1.521C50.736,-0.652 49.975,0 49.106,0L47.585,0C47.042,0 46.281,-0.326 45.955,-0.76L13.254,-42.696C12.82,-43.348 11.842,-43.022 11.842,-42.262L11.842,-1.521C11.842,-0.652 11.19,0 10.321,0L0,0C-0.869,0 -1.521,-0.652 -1.521,-1.521L-1.521,-75.18C-1.521,-75.941 -0.869,-76.701 0,-76.701" style="fill:rgb(29,29,27);fill-rule:nonzero;"/>
        </g>
        <g transform="matrix(1,0,0,1,254.471,199.337)">
            <path d="M0,-2.831L0,-25.457C0,-26.108 0.435,-26.651 1.086,-26.651L8.724,-26.651C15.52,-26.521 20.991,-21.005 20.991,-14.178C20.991,-7.351 15.521,-1.769 8.725,-1.636L1.086,-1.636C0.435,-1.636 0,-2.179 0,-2.831M35.421,35.034L27.395,19.538C25.324,15.457 23.104,11.368 21.283,7.908L21.275,7.894C28.908,3.476 34.005,-4.743 34.005,-14.178C34.005,-28.318 22.449,-39.809 8.285,-39.703L-11.73,-39.704C-12.707,-39.704 -13.359,-38.943 -13.359,-38.183L-13.359,35.454C-13.359,36.323 -12.707,36.975 -11.838,36.975L-1.52,36.975C-0.76,36.975 0,36.323 0,35.454L0,12.538C0,11.886 0.435,11.343 1.086,11.343L7.583,11.343C7.838,11.343 8.016,11.344 8.143,11.345C8.651,11.365 9.117,11.701 9.335,12.163C9.388,12.275 9.509,12.52 9.509,12.52L9.51,12.519C11.617,16.814 14.07,21.829 16.353,26.503L16.352,26.504L17.205,28.247C18.487,30.874 19.692,33.346 20.72,35.459C20.766,35.553 20.814,35.643 20.863,35.728L20.872,35.747C20.88,35.761 20.889,35.774 20.897,35.787C20.905,35.801 20.913,35.814 20.921,35.827C20.936,35.851 20.95,35.874 20.965,35.897C21.53,36.773 22.304,36.978 23.619,36.978L33.926,36.978C34.903,36.978 35.903,35.96 35.421,35.034" style="fill:rgb(29,29,27);fill-rule:nonzero;"/>
        </g>
        <g transform="matrix(1,0,0,1,493.974,293.178)">
            <path d="M0,-2.831L0,-25.457C0,-26.108 0.435,-26.651 1.086,-26.651L8.724,-26.651C15.52,-26.521 20.991,-21.005 20.991,-14.178C20.991,-7.351 15.521,-1.769 8.725,-1.636L1.086,-1.636C0.435,-1.636 0,-2.179 0,-2.831M35.421,35.034L27.395,19.538C25.324,15.457 23.104,11.368 21.283,7.908L21.275,7.894C28.908,3.476 34.005,-4.743 34.005,-14.178C34.005,-28.318 22.449,-39.809 8.285,-39.703L-11.73,-39.704C-12.707,-39.704 -13.359,-38.943 -13.359,-38.183L-13.359,35.454C-13.359,36.323 -12.707,36.975 -11.838,36.975L-1.52,36.975C-0.76,36.975 0,36.323 0,35.454L0,12.538C0,11.886 0.435,11.343 1.086,11.343L7.583,11.343C7.838,11.343 8.016,11.344 8.143,11.345C8.651,11.365 9.117,11.701 9.335,12.163C9.388,12.275 9.509,12.52 9.509,12.52L9.51,12.519C11.617,16.814 14.07,21.829 16.353,26.503L16.352,26.504L17.205,28.247C18.487,30.874 19.692,33.346 20.72,35.459C20.766,35.553 20.814,35.643 20.863,35.728L20.872,35.747C20.88,35.761 20.889,35.774 20.897,35.787C20.905,35.801 20.913,35.814 20.921,35.827C20.936,35.851 20.95,35.875 20.965,35.897C21.53,36.773 22.304,36.978 23.619,36.978L33.926,36.978C34.903,36.978 35.903,35.96 35.421,35.034" style="fill:rgb(29,29,27);fill-rule:nonzero;"/>
        </g>
        <g transform="matrix(1,0,0,1,169.962,387.023)">
            <path d="M0,-2.831L0,-25.457C0,-26.108 0.435,-26.651 1.086,-26.651L8.724,-26.651C15.52,-26.521 20.991,-21.005 20.991,-14.178C20.991,-7.351 15.521,-1.769 8.725,-1.636L1.086,-1.636C0.435,-1.636 0,-2.179 0,-2.831M35.421,35.034L27.395,19.538C25.324,15.457 23.104,11.368 21.283,7.908L21.275,7.894C28.908,3.476 34.005,-4.743 34.005,-14.178C34.005,-28.318 22.449,-39.809 8.285,-39.703L-11.73,-39.704C-12.707,-39.704 -13.359,-38.943 -13.359,-38.183L-13.359,35.454C-13.359,36.323 -12.707,36.975 -11.838,36.975L-1.52,36.975C-0.76,36.975 0,36.323 0,35.454L0,12.538C0,11.886 0.435,11.343 1.086,11.343L7.583,11.343C7.838,11.343 8.016,11.344 8.143,11.345C8.651,11.365 9.117,11.701 9.335,12.163C9.388,12.275 9.509,12.52 9.509,12.52L9.51,12.519C11.617,16.814 14.07,21.829 16.353,26.503L16.352,26.504L17.204,28.247C18.487,30.874 19.692,33.346 20.72,35.459C20.766,35.553 20.814,35.643 20.863,35.728L20.872,35.747C20.88,35.761 20.889,35.774 20.897,35.787C20.905,35.801 20.913,35.814 20.921,35.827C20.936,35.851 20.95,35.874 20.965,35.897C21.53,36.773 22.304,36.978 23.619,36.978L33.926,36.978C34.903,36.978 35.903,35.96 35.421,35.034" style="fill:rgb(29,29,27);fill-rule:nonzero;"/>
        </g>
        <g transform="matrix(1,0,0,1,91.4017,234.4)">
            <path d="M0,-72.829C-0.217,-73.805 0.433,-74.672 1.3,-74.672L12.03,-74.672C13.005,-74.672 13.764,-74.021 13.981,-73.046L24.602,-25.576C24.819,-24.818 25.794,-24.709 26.119,-25.468L38.691,-55.489C39.016,-56.139 39.449,-56.356 39.991,-56.356L40.533,-56.356C41.075,-56.356 41.509,-56.139 41.725,-55.489L54.406,-25.468C54.731,-24.818 55.706,-24.818 55.923,-25.576L66.436,-73.046C66.652,-74.021 67.519,-74.672 68.386,-74.672L79.116,-74.672C80.091,-74.672 80.741,-73.696 80.525,-72.829L62.426,0.434C62.209,1.301 61.45,1.843 60.583,1.843L55.273,1.843C54.406,1.843 53.755,1.41 53.43,0.651L40.967,-29.153C40.858,-29.478 40.533,-29.586 40.208,-29.586C39.883,-29.586 39.558,-29.478 39.449,-29.153L27.094,0.651C26.769,1.41 26.011,1.843 25.252,1.843L19.833,1.843C18.966,1.843 18.208,1.301 17.991,0.434L0,-72.829Z" style="fill:rgb(29,29,27);fill-rule:nonzero;"/>
        </g>
        <g transform="matrix(1,0,0,1,216.383,210.448)">
            <path d="M0,-24.82L0,-24.791C0,-24.667 -0.002,-24.543 -0.006,-24.42L-0.006,-0.314C-0.003,-0.21 -0.002,-0.105 -0.002,-0.001C-0.002,7.465 -6.054,13.518 -13.52,13.518C-20.984,13.518 -27.035,7.469 -27.038,0.005L-27.035,0.005L-27.035,-24.82L-27.038,-24.82L-27.038,-24.829L-27.036,-24.829C-27.031,-32.29 -20.981,-38.338 -13.518,-38.338C-6.052,-38.338 0,-32.286 0,-24.82ZM12.773,-30.214C12.419,-31.943 11.891,-33.644 11.203,-35.269C10.529,-36.862 9.696,-38.398 8.727,-39.833C7.768,-41.251 6.669,-42.584 5.458,-43.795C4.247,-45.006 2.913,-46.106 1.495,-47.064C0.06,-48.034 -1.475,-48.867 -3.068,-49.541C-4.694,-50.228 -6.395,-50.756 -8.124,-51.11C-9.891,-51.472 -11.706,-51.655 -13.518,-51.655C-15.33,-51.655 -17.145,-51.472 -18.912,-51.11C-20.641,-50.756 -22.342,-50.228 -23.968,-49.541C-25.561,-48.867 -27.096,-48.034 -28.531,-47.064C-29.95,-46.106 -31.283,-45.006 -32.494,-43.795C-33.705,-42.584 -34.805,-41.251 -35.763,-39.833C-36.732,-38.398 -37.566,-36.862 -38.239,-35.269C-38.927,-33.644 -39.455,-31.943 -39.809,-30.214C-40.17,-28.447 -40.354,-26.632 -40.354,-24.82C-40.354,-24.77 -40.353,-24.72 -40.353,-24.67L-40.353,-0.376C-40.355,-0.251 -40.356,-0.126 -40.356,-0.001C-40.356,1.811 -40.172,3.626 -39.811,5.394C-39.457,7.123 -38.929,8.824 -38.241,10.449C-37.567,12.042 -36.734,13.578 -35.765,15.013C-34.807,16.431 -33.707,17.764 -32.496,18.975C-31.285,20.186 -29.951,21.286 -28.533,22.244C-27.098,23.214 -25.563,24.047 -23.97,24.721C-22.344,25.408 -20.643,25.936 -18.914,26.29C-17.147,26.652 -15.332,26.835 -13.52,26.835C-11.708,26.835 -9.893,26.652 -8.126,26.29C-6.397,25.936 -4.696,25.408 -3.07,24.721C-1.477,24.047 0.058,23.214 1.493,22.244C2.912,21.286 4.245,20.186 5.456,18.975C6.667,17.764 7.767,16.431 8.725,15.013C9.694,13.578 10.528,12.042 11.201,10.449C11.889,8.824 12.417,7.123 12.771,5.394C13.132,3.628 13.315,1.816 13.316,0.005L13.317,0.005L13.317,-24.789C13.317,-24.799 13.318,-24.809 13.318,-24.82C13.318,-26.632 13.134,-28.447 12.773,-30.214" style="fill:rgb(29,29,27);fill-rule:nonzero;"/>
        </g>
        <g transform="matrix(1,0,0,1,287.082,304.346)">
            <path d="M0,-24.82L0,-24.791C0,-24.667 -0.002,-24.543 -0.006,-24.421L-0.006,-0.314C-0.003,-0.21 -0.002,-0.105 -0.002,-0.001C-0.002,7.465 -6.054,13.518 -13.52,13.518C-20.984,13.518 -27.035,7.469 -27.038,0.005L-27.035,0.005L-27.035,-24.82L-27.038,-24.82L-27.038,-24.829L-27.036,-24.829C-27.031,-32.29 -20.981,-38.338 -13.518,-38.338C-6.052,-38.338 0,-32.286 0,-24.82ZM12.773,-30.214C12.419,-31.943 11.891,-33.644 11.203,-35.269C10.529,-36.862 9.696,-38.398 8.727,-39.833C7.768,-41.251 6.669,-42.584 5.458,-43.795C4.247,-45.006 2.913,-46.106 1.495,-47.064C0.06,-48.034 -1.475,-48.867 -3.068,-49.541C-4.694,-50.228 -6.395,-50.756 -8.124,-51.11C-9.891,-51.472 -11.706,-51.655 -13.518,-51.655C-15.33,-51.655 -17.145,-51.472 -18.912,-51.11C-20.641,-50.756 -22.342,-50.228 -23.968,-49.541C-25.561,-48.867 -27.096,-48.034 -28.531,-47.064C-29.95,-46.106 -31.283,-45.006 -32.494,-43.795C-33.705,-42.584 -34.805,-41.251 -35.763,-39.833C-36.732,-38.398 -37.566,-36.862 -38.239,-35.269C-38.927,-33.644 -39.455,-31.943 -39.809,-30.214C-40.17,-28.447 -40.354,-26.632 -40.354,-24.82C-40.354,-24.77 -40.353,-24.72 -40.353,-24.67L-40.353,-0.376C-40.355,-0.251 -40.356,-0.126 -40.356,-0.001C-40.356,1.811 -40.172,3.626 -39.811,5.394C-39.457,7.123 -38.929,8.824 -38.241,10.449C-37.567,12.042 -36.734,13.578 -35.765,15.013C-34.807,16.431 -33.707,17.764 -32.496,18.975C-31.285,20.186 -29.951,21.286 -28.533,22.244C-27.098,23.214 -25.563,24.047 -23.97,24.721C-22.344,25.408 -20.643,25.936 -18.914,26.29C-17.147,26.652 -15.332,26.835 -13.52,26.835C-11.708,26.835 -9.893,26.652 -8.126,26.29C-6.397,25.936 -4.696,25.408 -3.07,24.721C-1.477,24.047 0.058,23.214 1.493,22.244C2.912,21.286 4.245,20.186 5.456,18.975C6.667,17.764 7.767,16.431 8.725,15.013C9.694,13.578 10.528,12.042 11.201,10.449C11.889,8.824 12.417,7.123 12.771,5.394C13.132,3.628 13.315,1.816 13.316,0.005L13.317,0.005L13.317,-24.789C13.317,-24.799 13.318,-24.809 13.318,-24.82C13.318,-26.632 13.134,-28.447 12.773,-30.214" style="fill:rgb(29,29,27);fill-rule:nonzero;"/>
        </g>
        <g transform="matrix(1,0,0,1,132.883,398.184)">
            <path d="M0,-24.82L0,-24.791C0,-24.667 -0.002,-24.543 -0.006,-24.421L-0.006,-0.314C-0.003,-0.21 -0.002,-0.105 -0.002,-0.001C-0.002,7.465 -6.054,13.518 -13.52,13.518C-20.984,13.518 -27.035,7.469 -27.038,0.005L-27.035,0.005L-27.035,-24.82L-27.038,-24.82L-27.038,-24.829L-27.036,-24.829C-27.031,-32.29 -20.981,-38.338 -13.518,-38.338C-6.052,-38.338 0,-32.286 0,-24.82ZM12.773,-30.214C12.419,-31.943 11.891,-33.644 11.203,-35.269C10.529,-36.862 9.696,-38.398 8.727,-39.833C7.768,-41.251 6.669,-42.584 5.458,-43.795C4.247,-45.006 2.913,-46.106 1.495,-47.064C0.06,-48.034 -1.475,-48.867 -3.068,-49.541C-4.694,-50.228 -6.395,-50.756 -8.124,-51.11C-9.891,-51.472 -11.706,-51.655 -13.518,-51.655C-15.33,-51.655 -17.145,-51.472 -18.912,-51.11C-20.641,-50.756 -22.342,-50.228 -23.968,-49.541C-25.561,-48.867 -27.096,-48.034 -28.531,-47.064C-29.95,-46.106 -31.283,-45.006 -32.494,-43.795C-33.705,-42.584 -34.805,-41.251 -35.763,-39.833C-36.732,-38.398 -37.566,-36.862 -38.239,-35.269C-38.927,-33.644 -39.455,-31.943 -39.809,-30.214C-40.17,-28.447 -40.354,-26.632 -40.354,-24.82C-40.354,-24.77 -40.353,-24.72 -40.353,-24.67L-40.353,-0.376C-40.355,-0.251 -40.356,-0.126 -40.356,-0.001C-40.356,1.811 -40.172,3.626 -39.811,5.394C-39.457,7.123 -38.929,8.824 -38.241,10.449C-37.567,12.042 -36.734,13.578 -35.765,15.013C-34.807,16.431 -33.707,17.764 -32.496,18.975C-31.285,20.186 -29.951,21.286 -28.533,22.244C-27.098,23.214 -25.563,24.047 -23.97,24.721C-22.344,25.408 -20.643,25.936 -18.914,26.29C-17.147,26.652 -15.332,26.835 -13.52,26.835C-11.708,26.835 -9.893,26.652 -8.126,26.29C-6.397,25.936 -4.696,25.408 -3.07,24.721C-1.477,24.047 0.058,23.214 1.493,22.244C2.912,21.286 4.245,20.186 5.456,18.975C6.667,17.764 7.767,16.431 8.725,15.013C9.694,13.578 10.528,12.042 11.201,10.449C11.889,8.824 12.417,7.123 12.771,5.394C13.132,3.628 13.315,1.816 13.316,0.005L13.317,0.005L13.317,-24.789C13.317,-24.799 13.318,-24.809 13.318,-24.82C13.318,-26.632 13.134,-28.447 12.773,-30.214" style="fill:rgb(29,29,27);fill-rule:nonzero;"/>
        </g>
        <g transform="matrix(1,0,0,1,395.125,304.346)">
            <path d="M0,-24.82L0,-24.791C0,-24.667 -0.002,-24.543 -0.006,-24.421L-0.006,-0.314C-0.003,-0.21 -0.002,-0.105 -0.002,-0.001C-0.002,7.465 -6.054,13.518 -13.52,13.518C-20.984,13.518 -27.035,7.469 -27.038,0.005L-27.035,0.005L-27.035,-24.82L-27.038,-24.82L-27.038,-24.829L-27.036,-24.829C-27.031,-32.29 -20.981,-38.338 -13.518,-38.338C-6.052,-38.338 0,-32.286 0,-24.82ZM12.773,-30.214C12.419,-31.943 11.891,-33.644 11.203,-35.269C10.529,-36.862 9.696,-38.398 8.727,-39.833C7.768,-41.251 6.669,-42.584 5.458,-43.795C4.247,-45.006 2.913,-46.106 1.495,-47.064C0.06,-48.034 -1.475,-48.867 -3.068,-49.541C-4.694,-50.228 -6.395,-50.756 -8.124,-51.11C-9.891,-51.472 -11.706,-51.655 -13.518,-51.655C-15.33,-51.655 -17.145,-51.472 -18.912,-51.11C-20.641,-50.756 -22.342,-50.228 -23.968,-49.541C-25.561,-48.867 -27.096,-48.034 -28.531,-47.064C-29.95,-46.106 -31.283,-45.006 -32.494,-43.795C-33.705,-42.584 -34.805,-41.251 -35.763,-39.833C-36.732,-38.398 -37.566,-36.862 -38.239,-35.269C-38.927,-33.644 -39.455,-31.943 -39.809,-30.214C-40.17,-28.447 -40.354,-26.632 -40.354,-24.82C-40.354,-24.77 -40.353,-24.72 -40.353,-24.67L-40.353,-0.376C-40.354,-0.251 -40.356,-0.126 -40.356,-0.001C-40.356,1.811 -40.172,3.626 -39.811,5.394C-39.457,7.123 -38.929,8.824 -38.241,10.449C-37.567,12.042 -36.734,13.578 -35.765,15.013C-34.807,16.431 -33.707,17.764 -32.496,18.975C-31.285,20.186 -29.951,21.286 -28.533,22.244C-27.098,23.214 -25.563,24.047 -23.97,24.721C-22.344,25.408 -20.643,25.936 -18.914,26.29C-17.147,26.652 -15.332,26.835 -13.52,26.835C-11.708,26.835 -9.893,26.652 -8.126,26.29C-6.397,25.936 -4.696,25.408 -3.07,24.721C-1.477,24.047 0.058,23.214 1.493,22.244C2.912,21.286 4.245,20.186 5.456,18.975C6.667,17.764 7.767,16.431 8.725,15.013C9.694,13.578 10.528,12.042 11.201,10.449C11.889,8.824 12.417,7.123 12.771,5.394C13.132,3.628 13.315,1.816 13.316,0.005L13.317,0.005L13.317,-24.789C13.317,-24.799 13.318,-24.809 13.318,-24.82C13.318,-26.632 13.134,-28.447 12.773,-30.214" style="fill:rgb(29,29,27);fill-rule:nonzero;"/>
        </g>
        <g transform="matrix(1,0,0,1,640.052,398.157)">
            <path d="M0,-24.82L0,-24.791C0,-24.667 -0.002,-24.543 -0.006,-24.421L-0.006,-0.314C-0.003,-0.21 -0.002,-0.105 -0.002,-0.001C-0.002,7.465 -6.054,13.518 -13.52,13.518C-20.984,13.518 -27.035,7.469 -27.038,0.005L-27.035,0.005L-27.035,-24.82L-27.038,-24.82L-27.038,-24.829L-27.036,-24.829C-27.031,-32.29 -20.981,-38.338 -13.518,-38.338C-6.052,-38.338 0,-32.286 0,-24.82ZM12.773,-30.214C12.419,-31.943 11.891,-33.644 11.203,-35.269C10.529,-36.862 9.696,-38.398 8.727,-39.833C7.768,-41.251 6.669,-42.584 5.458,-43.795C4.247,-45.006 2.913,-46.106 1.495,-47.064C0.06,-48.034 -1.475,-48.867 -3.068,-49.541C-4.694,-50.228 -6.395,-50.756 -8.124,-51.11C-9.891,-51.472 -11.706,-51.655 -13.518,-51.655C-15.33,-51.655 -17.145,-51.472 -18.912,-51.11C-20.641,-50.756 -22.342,-50.228 -23.968,-49.541C-25.561,-48.867 -27.096,-48.034 -28.531,-47.064C-29.95,-46.106 -31.283,-45.006 -32.494,-43.795C-33.705,-42.584 -34.805,-41.251 -35.763,-39.833C-36.732,-38.398 -37.566,-36.862 -38.239,-35.269C-38.927,-33.644 -39.455,-31.943 -39.809,-30.214C-40.17,-28.447 -40.354,-26.632 -40.354,-24.82C-40.354,-24.77 -40.353,-24.72 -40.353,-24.67L-40.353,-0.376C-40.354,-0.251 -40.356,-0.126 -40.356,-0.001C-40.356,1.811 -40.172,3.626 -39.811,5.394C-39.457,7.123 -38.929,8.824 -38.241,10.449C-37.567,12.042 -36.734,13.578 -35.765,15.013C-34.807,16.431 -33.707,17.764 -32.496,18.975C-31.285,20.186 -29.951,21.286 -28.533,22.244C-27.098,23.214 -25.563,24.047 -23.97,24.721C-22.344,25.408 -20.643,25.936 -18.914,26.29C-17.147,26.652 -15.332,26.835 -13.52,26.835C-11.708,26.835 -9.893,26.652 -8.126,26.29C-6.397,25.936 -4.696,25.408 -3.07,24.721C-1.477,24.047 0.058,23.214 1.493,22.244C2.911,21.286 4.245,20.186 5.456,18.975C6.667,17.764 7.767,16.431 8.725,15.013C9.694,13.578 10.528,12.042 11.201,10.449C11.889,8.824 12.417,7.123 12.771,5.394C13.132,3.628 13.315,1.816 13.316,0.005L13.317,0.005L13.317,-24.789C13.317,-24.799 13.318,-24.809 13.318,-24.82C13.318,-26.632 13.134,-28.447 12.773,-30.214" style="fill:rgb(29,29,27);fill-rule:nonzero;"/>
        </g>
        <g transform="matrix(1,0,0,1,142.855,292.084)">
            <path d="M0,-0.544C-0.652,-0.544 -1.087,-1.087 -1.087,-1.739L-1.087,-24.378C-1.087,-25.03 -0.652,-25.573 0,-25.573L7.294,-25.572L7.398,-25.572C14.298,-25.572 19.892,-19.994 19.892,-13.094C19.892,-6.194 14.298,-0.545 7.398,-0.545L7.312,-0.545L7.312,-0.544L0,-0.544ZM27.415,2.768C27.446,2.728 27.478,2.688 27.509,2.648C30.601,-1.287 32.553,-6.152 32.886,-11.465C32.887,-11.488 32.888,-11.511 32.89,-11.533C32.897,-11.652 32.903,-11.771 32.909,-11.89C32.913,-11.982 32.917,-12.074 32.921,-12.166C32.922,-12.207 32.923,-12.248 32.924,-12.288C32.928,-12.393 32.93,-12.498 32.932,-12.602C32.933,-12.629 32.933,-12.655 32.934,-12.681C32.936,-12.819 32.938,-12.956 32.938,-13.094C32.938,-13.423 32.931,-13.752 32.918,-14.081C32.918,-14.097 32.917,-14.113 32.916,-14.129C32.913,-14.218 32.909,-14.308 32.904,-14.398C32.9,-14.477 32.896,-14.555 32.891,-14.633C32.889,-14.66 32.888,-14.687 32.886,-14.714C32.832,-15.579 32.734,-16.431 32.596,-17.27C32.595,-17.273 32.595,-17.275 32.594,-17.277C32.58,-17.365 32.565,-17.452 32.55,-17.538C32.546,-17.56 32.542,-17.581 32.538,-17.603C32.527,-17.669 32.514,-17.735 32.502,-17.802C32.494,-17.843 32.486,-17.885 32.478,-17.927C32.47,-17.972 32.461,-18.016 32.452,-18.061C32.441,-18.116 32.43,-18.172 32.419,-18.227C32.417,-18.235 32.416,-18.242 32.414,-18.249C32.41,-18.269 32.406,-18.289 32.402,-18.308C32.384,-18.394 32.366,-18.48 32.347,-18.566C32.346,-18.572 32.344,-18.578 32.343,-18.584C32.008,-20.107 31.532,-21.604 30.925,-23.039C30.284,-24.555 29.491,-26.016 28.568,-27.382C27.656,-28.732 26.61,-30.001 25.457,-31.153C24.305,-32.305 23.036,-33.352 21.686,-34.264C20.321,-35.187 18.859,-35.98 17.343,-36.621C16.334,-37.048 15.294,-37.41 14.236,-37.704C14.234,-37.704 14.232,-37.704 14.231,-37.705C14.136,-37.731 14.042,-37.757 13.948,-37.782C13.932,-37.786 13.916,-37.79 13.9,-37.794C13.819,-37.816 13.737,-37.837 13.655,-37.857C13.629,-37.864 13.602,-37.871 13.575,-37.877C13.503,-37.895 13.431,-37.913 13.359,-37.93C13.324,-37.939 13.288,-37.947 13.253,-37.955C13.189,-37.971 13.124,-37.985 13.06,-38C13.018,-38.01 12.975,-38.019 12.933,-38.029C12.875,-38.041 12.817,-38.054 12.759,-38.066C12.71,-38.077 12.661,-38.087 12.611,-38.098C12.585,-38.103 12.558,-38.109 12.531,-38.115C12.508,-38.119 12.484,-38.124 12.461,-38.129C12.401,-38.141 12.342,-38.152 12.282,-38.164C12.241,-38.172 12.199,-38.18 12.158,-38.188C12.089,-38.201 12.02,-38.214 11.951,-38.226C11.919,-38.232 11.887,-38.238 11.855,-38.243C11.776,-38.257 11.697,-38.271 11.618,-38.284C11.595,-38.288 11.572,-38.291 11.55,-38.295C11.462,-38.31 11.375,-38.323 11.287,-38.337C11.272,-38.339 11.257,-38.342 11.241,-38.344C11.147,-38.358 11.053,-38.372 10.959,-38.385C10.949,-38.386 10.939,-38.388 10.929,-38.389C10.831,-38.403 10.733,-38.416 10.634,-38.428C10.627,-38.429 10.62,-38.43 10.612,-38.431C10.513,-38.444 10.414,-38.456 10.314,-38.467C10.306,-38.468 10.299,-38.469 10.291,-38.47C10.193,-38.481 10.096,-38.491 9.998,-38.501C9.987,-38.502 9.975,-38.503 9.964,-38.505C9.871,-38.514 9.778,-38.523 9.686,-38.531C9.668,-38.533 9.65,-38.534 9.632,-38.536C9.547,-38.543 9.461,-38.55 9.376,-38.557C9.349,-38.559 9.322,-38.561 9.295,-38.563C9.22,-38.568 9.144,-38.574 9.068,-38.579C9.03,-38.581 8.992,-38.583 8.955,-38.586C8.89,-38.59 8.825,-38.593 8.76,-38.597C8.71,-38.599 8.66,-38.602 8.611,-38.604C8.557,-38.607 8.504,-38.609 8.451,-38.611C8.389,-38.614 8.327,-38.616 8.265,-38.618C8.223,-38.62 8.181,-38.621 8.139,-38.622C8.067,-38.624 7.994,-38.626 7.922,-38.627C7.889,-38.628 7.856,-38.629 7.823,-38.629C7.743,-38.631 7.663,-38.632 7.583,-38.632C7.555,-38.632 7.528,-38.633 7.5,-38.633L7.312,-38.633L7.312,-38.632C7.275,-38.632 7.239,-38.633 7.203,-38.632L-12.823,-38.633C-13.801,-38.633 -14.453,-37.872 -14.453,-37.111L-14.453,36.568C-14.453,37.437 -13.801,38.089 -12.932,38.089L-2.608,38.089C-1.847,38.089 -1.087,37.437 -1.087,36.568L-1.087,13.638C-1.087,12.986 -0.652,12.442 0,12.442L6.5,12.442C6.755,12.443 7.185,12.444 7.312,12.444L7.312,12.445C7.34,12.445 7.369,12.446 7.398,12.446C9.122,12.446 10.849,12.271 12.531,11.927C14.177,11.59 15.796,11.088 17.343,10.433C18.324,10.018 19.282,9.54 20.206,9.004C20.207,9.005 20.208,9.006 20.208,9.006L20.207,9.003C20.711,8.711 21.205,8.402 21.686,8.076C23.036,7.165 24.305,6.118 25.457,4.965C26.112,4.311 26.733,3.618 27.314,2.895C27.348,2.853 27.381,2.81 27.415,2.768" style="fill:rgb(29,29,27);fill-rule:nonzero;"/>
        </g>
        <g transform="matrix(1,0,0,1,612.447,292.084)">
            <path d="M0,-0.544C-0.652,-0.544 -1.087,-1.087 -1.087,-1.739L-1.087,-24.378C-1.087,-25.03 -0.652,-25.573 0,-25.573L7.294,-25.572L7.398,-25.572C14.298,-25.572 19.892,-19.994 19.892,-13.094C19.892,-6.194 14.298,-0.545 7.398,-0.545L7.312,-0.545L7.312,-0.544L0,-0.544ZM27.415,2.768C27.446,2.728 27.478,2.688 27.509,2.648C30.601,-1.287 32.553,-6.152 32.886,-11.465C32.887,-11.488 32.888,-11.511 32.89,-11.533C32.897,-11.652 32.903,-11.771 32.909,-11.89C32.913,-11.982 32.917,-12.074 32.921,-12.166C32.922,-12.207 32.923,-12.248 32.924,-12.288C32.928,-12.393 32.93,-12.498 32.932,-12.602C32.933,-12.629 32.933,-12.655 32.934,-12.681C32.936,-12.819 32.938,-12.956 32.938,-13.094C32.938,-13.423 32.931,-13.752 32.918,-14.081C32.918,-14.097 32.917,-14.113 32.916,-14.129C32.913,-14.218 32.909,-14.308 32.904,-14.398C32.9,-14.477 32.896,-14.555 32.891,-14.633C32.889,-14.66 32.888,-14.687 32.886,-14.714C32.832,-15.579 32.734,-16.431 32.596,-17.27C32.595,-17.273 32.595,-17.275 32.594,-17.277C32.58,-17.365 32.565,-17.452 32.55,-17.538C32.546,-17.56 32.542,-17.581 32.538,-17.603C32.527,-17.669 32.514,-17.735 32.502,-17.802C32.494,-17.843 32.486,-17.885 32.478,-17.927C32.47,-17.972 32.461,-18.016 32.452,-18.061C32.441,-18.116 32.43,-18.172 32.419,-18.227C32.417,-18.235 32.416,-18.242 32.414,-18.249C32.41,-18.269 32.406,-18.289 32.402,-18.308C32.384,-18.394 32.366,-18.48 32.347,-18.566C32.346,-18.572 32.344,-18.578 32.343,-18.584C32.008,-20.107 31.532,-21.604 30.925,-23.039C30.284,-24.555 29.491,-26.016 28.568,-27.382C27.656,-28.732 26.61,-30.001 25.457,-31.153C24.305,-32.305 23.036,-33.352 21.687,-34.264C20.321,-35.187 18.859,-35.98 17.343,-36.621C16.334,-37.048 15.294,-37.41 14.236,-37.704C14.234,-37.704 14.232,-37.704 14.231,-37.705C14.136,-37.731 14.042,-37.757 13.948,-37.782C13.932,-37.786 13.916,-37.79 13.9,-37.794C13.819,-37.816 13.737,-37.837 13.656,-37.857C13.629,-37.864 13.602,-37.871 13.575,-37.877C13.503,-37.895 13.431,-37.913 13.359,-37.93C13.324,-37.939 13.289,-37.947 13.253,-37.955C13.189,-37.971 13.124,-37.985 13.06,-38C13.018,-38.01 12.975,-38.019 12.933,-38.029C12.875,-38.041 12.817,-38.054 12.76,-38.066C12.71,-38.077 12.661,-38.087 12.611,-38.098C12.585,-38.103 12.558,-38.109 12.531,-38.115C12.508,-38.119 12.484,-38.124 12.461,-38.129C12.401,-38.141 12.342,-38.152 12.282,-38.164C12.241,-38.172 12.199,-38.18 12.158,-38.188C12.089,-38.201 12.02,-38.214 11.951,-38.226C11.919,-38.232 11.887,-38.238 11.855,-38.243C11.776,-38.257 11.697,-38.271 11.618,-38.284C11.595,-38.288 11.573,-38.291 11.55,-38.295C11.462,-38.31 11.375,-38.323 11.287,-38.337C11.272,-38.339 11.257,-38.342 11.241,-38.344C11.147,-38.358 11.053,-38.372 10.959,-38.385C10.949,-38.386 10.939,-38.388 10.929,-38.389C10.831,-38.403 10.733,-38.416 10.634,-38.428C10.627,-38.429 10.62,-38.43 10.612,-38.431C10.513,-38.444 10.414,-38.456 10.314,-38.467L10.291,-38.47C10.193,-38.481 10.096,-38.491 9.998,-38.501C9.987,-38.502 9.975,-38.503 9.964,-38.505C9.871,-38.514 9.779,-38.523 9.686,-38.531C9.668,-38.533 9.65,-38.534 9.632,-38.536C9.547,-38.543 9.461,-38.55 9.376,-38.557C9.349,-38.559 9.322,-38.561 9.295,-38.563C9.22,-38.568 9.144,-38.574 9.068,-38.579C9.03,-38.581 8.992,-38.583 8.955,-38.586C8.89,-38.59 8.825,-38.593 8.76,-38.597C8.71,-38.599 8.66,-38.602 8.611,-38.604C8.557,-38.607 8.504,-38.609 8.451,-38.611C8.389,-38.614 8.327,-38.616 8.265,-38.618C8.223,-38.62 8.181,-38.621 8.139,-38.622C8.067,-38.624 7.994,-38.626 7.922,-38.627C7.889,-38.628 7.856,-38.629 7.823,-38.629C7.743,-38.631 7.663,-38.632 7.583,-38.632C7.555,-38.632 7.528,-38.633 7.5,-38.633L7.312,-38.633L7.312,-38.632C7.275,-38.632 7.239,-38.633 7.203,-38.632L-12.823,-38.633C-13.801,-38.633 -14.453,-37.872 -14.453,-37.111L-14.453,36.568C-14.453,37.437 -13.801,38.089 -12.932,38.089L-2.608,38.089C-1.847,38.089 -1.087,37.437 -1.087,36.568L-1.087,13.638C-1.087,12.986 -0.652,12.442 0,12.442L6.5,12.442C6.755,12.443 7.185,12.444 7.312,12.444L7.312,12.445C7.34,12.445 7.369,12.446 7.398,12.446C9.122,12.446 10.849,12.271 12.531,11.927C14.177,11.59 15.796,11.088 17.343,10.433C18.324,10.018 19.282,9.54 20.206,9.004C20.207,9.005 20.208,9.006 20.208,9.006L20.207,9.003C20.711,8.711 21.205,8.402 21.687,8.076C23.036,7.165 24.305,6.118 25.457,4.965C26.112,4.311 26.733,3.618 27.314,2.895C27.348,2.853 27.381,2.81 27.415,2.768" style="fill:rgb(29,29,27);fill-rule:nonzero;"/>
        </g>
        <g transform="matrix(1,0,0,1,93.5414,304.113)">
            <path d="M0,26.153L21.894,26.153C22.9,26.153 23.716,25.337 23.716,24.331L23.716,2.437C23.716,0.814 21.753,0 20.605,1.148L-1.289,23.042C-2.437,24.19 -1.623,26.153 0,26.153" style="fill:rgb(29,29,27);fill-rule:nonzero;"/>
        </g>
    </g>
</svg>
